<svg width="727" height="49" viewBox="0 0 727 49" fill="none" xmlns="http://www.w3.org/2000/svg">
<path d="M721.749 39.6797C718.913 39.6797 716.592 37.2891 716.592 34.4062C716.592 31.5 718.913 29.1094 721.749 29.1094C724.584 29.1094 726.905 31.5 726.905 34.4062C726.905 37.2891 724.584 39.6797 721.749 39.6797Z" fill="#0500FF"/>
<path d="M689.133 6H695.414V13.6406H705.047V18.7734H695.531V31.125C695.531 33.0703 696.914 34.1719 699.375 34.1719C699.984 34.1719 704.461 34.1484 704.742 34.125V39.1875C704.484 39.2344 699.375 39.2812 698.859 39.2812C691.828 39.2812 689.133 37.0547 689.133 31.0547V18.7734H682.406V13.6406H689.133V6Z" fill="#0500FF"/>
<path d="M655.697 39.2344V13.3828H661.908V17.7188H662.306C663.572 14.6016 666.361 12.8438 670.087 12.8438C675.712 12.8438 678.712 16.2188 678.712 22.5234V39.2344H672.291V24.0469C672.291 20.25 670.767 18.4453 667.509 18.4453C664.228 18.4453 662.095 20.7188 662.095 24.3047V39.2344H655.697Z" fill="#0500FF"/>
<path d="M636.44 39.6562C631.565 39.6562 628.284 36.5156 628.284 31.8516C628.284 27.1875 631.683 24.4453 638.058 24L644.104 23.625V21.5625C644.104 19.3125 642.558 18 639.909 18C637.683 18 636.019 18.9844 635.479 20.6016H629.245C629.714 15.9141 633.956 12.8906 640.097 12.8906C646.729 12.8906 650.456 16.0547 650.456 21.7031V39.2344H644.362V35.7891H643.8C642.534 38.2266 639.815 39.6562 636.44 39.6562ZM638.644 34.5234C641.831 34.5234 644.104 32.5078 644.104 29.625V27.75L639.136 28.0547C636.136 28.2422 634.612 29.3906 634.612 31.3828C634.612 33.3047 636.159 34.5234 638.644 34.5234Z" fill="#0500FF"/>
<path d="M627.028 13.3828L621.849 39.2344H616.271L612.778 21.8906H612.544L609.052 39.2344H603.474L598.294 13.3828H604.411L606.403 31.5703H607.224L610.013 13.4766H615.31L618.099 31.5703H618.919L620.888 13.3828H627.028Z" fill="#0500FF"/>
<path d="M563.719 31.9688H569.766C569.227 36.5391 564.656 39.7969 558.656 39.7969C551.133 39.7969 546.82 35.5781 546.82 28.2422V24.0938C546.82 17.3203 551.508 12.8438 558.539 12.8438C565.383 12.8438 569.766 17.3438 569.766 24.2812V27.8438H553.102V29.25C553.102 32.625 555.281 34.8281 558.633 34.8281C561.211 34.8281 563.25 33.6562 563.719 31.9688ZM558.422 17.8125C555.094 17.8125 553.102 20.0391 553.102 23.7422H563.578C563.578 20.0391 561.656 17.8125 558.422 17.8125Z" fill="#0500FF"/>
<path d="M542.259 39.2344H519.923V34.125H528.126V8.64844H520.345V3.53906H534.548V34.125H542.259V39.2344Z" fill="#0500FF"/>
<path d="M506.456 12.9844C512.386 12.9844 515.878 17.0625 515.878 24.0938V28.5469C515.878 35.6016 512.386 39.6797 506.456 39.6797C502.729 39.6797 500.151 37.9453 499.284 34.8516H498.815V47.8359H492.136V13.3828H498.722V17.8359H499.214C500.128 14.7188 502.683 12.9844 506.456 12.9844ZM503.995 18.5625C500.667 18.5625 498.651 20.7188 498.651 24.2812V28.5703C498.651 32.1328 500.667 34.2891 503.995 34.2891C507.3 34.2891 509.339 32.1094 509.339 28.5703V24.2812C509.339 20.7422 507.3 18.5625 503.995 18.5625Z" fill="#0500FF"/>
<path d="M476.302 39.7969C469.013 39.7969 464.419 35.3672 464.419 28.3125V24.3281C464.419 17.2734 469.013 12.8438 476.302 12.8438C483.591 12.8438 488.185 17.2734 488.185 24.3281V28.3125C488.185 35.3672 483.591 39.7969 476.302 39.7969ZM476.302 18.0938C472.856 18.0938 470.724 20.5781 470.724 24.5859V28.0547C470.724 32.0391 472.856 34.5469 476.302 34.5469C479.747 34.5469 481.88 32.0391 481.88 28.0547V24.5859C481.88 20.5781 479.747 18.0938 476.302 18.0938Z" fill="#0500FF"/>
<path d="M454.631 31.9688H460.678C460.139 36.5391 455.569 39.7969 449.569 39.7969C442.045 39.7969 437.733 35.5781 437.733 28.2422V24.0938C437.733 17.3203 442.42 12.8438 449.452 12.8438C456.295 12.8438 460.678 17.3438 460.678 24.2812V27.8438H444.014V29.25C444.014 32.625 446.194 34.8281 449.545 34.8281C452.124 34.8281 454.163 33.6562 454.631 31.9688ZM449.334 17.8125C446.006 17.8125 444.014 20.0391 444.014 23.7422H454.491C454.491 20.0391 452.569 17.8125 449.334 17.8125Z" fill="#0500FF"/>
<path d="M424.641 12.9844C430.57 12.9844 434.062 17.0625 434.062 24.0938V28.5469C434.062 35.6016 430.57 39.6797 424.641 39.6797C420.914 39.6797 418.336 37.9453 417.469 34.8516H417V47.8359H410.32V13.3828H416.906V17.8359H417.398C418.312 14.7188 420.867 12.9844 424.641 12.9844ZM422.18 18.5625C418.852 18.5625 416.836 20.7188 416.836 24.2812V28.5703C416.836 32.1328 418.852 34.2891 422.18 34.2891C425.484 34.2891 427.523 32.1094 427.523 28.5703V24.2812C427.523 20.7422 425.484 18.5625 422.18 18.5625Z" fill="#0500FF"/>
<path d="M366.487 48.9609C359.784 48.9609 355.401 46.125 354.979 41.5312H361.237C361.683 43.1953 363.745 44.25 366.581 44.25C370.308 44.25 372.276 42.5625 372.276 39.3281V34.2422H371.784C370.987 37.1484 367.987 39.0938 364.144 39.0938C358.19 39.0938 354.628 34.9688 354.628 27.9844V24.0703C354.628 17.0156 358.261 12.9609 364.448 12.9609C368.198 12.9609 371.081 14.8594 371.925 17.7891H372.394V13.3828H378.698V39.2109C378.698 45.2344 374.034 48.9609 366.487 48.9609ZM361.19 27.7969C361.19 31.3125 363.323 33.5156 366.675 33.5156C370.05 33.5156 372.183 31.3125 372.183 27.7969V24.0703C372.183 20.5547 370.05 18.3516 366.675 18.3516C363.323 18.3516 361.19 20.5781 361.19 24.0703V27.7969Z" fill="#0500FF"/>
<path d="M328.435 39.2344V13.3828H334.646V17.7188H335.044C336.31 14.6016 339.099 12.8438 342.825 12.8438C348.45 12.8438 351.45 16.2188 351.45 22.5234V39.2344H345.028V24.0469C345.028 20.25 343.505 18.4453 340.247 18.4453C336.966 18.4453 334.833 20.7188 334.833 24.3047V39.2344H328.435Z" fill="#0500FF"/>
<path d="M313.045 8.10938C310.42 8.10938 308.663 6.49219 308.663 4.05469C308.663 1.61719 310.42 0 313.045 0C315.67 0 317.452 1.61719 317.452 4.05469C317.452 6.49219 315.67 8.10938 313.045 8.10938ZM324.084 39.2344H301.749V34.125H310.045V18.5156H302.17V13.3828H316.28V34.125H324.084V39.2344Z" fill="#0500FF"/>
<path d="M273.797 39.2344V3.53906H280.055V17.7891H280.43C281.672 14.6953 284.555 12.9141 288.328 12.9141C293.93 12.9141 297.023 16.3359 297.023 22.5703V39.2344H290.602V24.1406C290.602 20.3672 289.008 18.5156 285.75 18.5156C282.375 18.5156 280.195 20.8125 280.195 24.375V39.2344H273.797Z" fill="#0500FF"/>
<path d="M252.783 6H259.064V13.6406H268.697V18.7734H259.181V31.125C259.181 33.0703 260.564 34.1719 263.025 34.1719C263.634 34.1719 268.111 34.1484 268.392 34.125V39.1875C268.134 39.2344 263.025 39.2812 262.509 39.2812C255.478 39.2812 252.783 37.0547 252.783 31.0547V18.7734H246.056V13.6406H252.783V6Z" fill="#0500FF"/>
<path d="M236.456 31.9688H242.503C241.964 36.5391 237.394 39.7969 231.394 39.7969C223.87 39.7969 219.558 35.5781 219.558 28.2422V24.0938C219.558 17.3203 224.245 12.8438 231.276 12.8438C238.12 12.8438 242.503 17.3438 242.503 24.2812V27.8438H225.839V29.25C225.839 32.625 228.019 34.8281 231.37 34.8281C233.948 34.8281 235.987 33.6562 236.456 31.9688ZM231.159 17.8125C227.831 17.8125 225.839 20.0391 225.839 23.7422H236.315C236.315 20.0391 234.394 17.8125 231.159 17.8125Z" fill="#0500FF"/>
<path d="M216.638 19.1719V39.2344H211.2V21.3281C211.2 19.4766 210.286 18.375 208.81 18.375C207.286 18.375 206.278 19.5938 206.278 21.4922V39.2344H200.911V21.3281C200.911 19.4766 200.044 18.375 198.521 18.375C196.974 18.375 195.966 19.5938 195.966 21.4922V39.2344H190.528V13.3828H196.13V17.4375H196.81C197.396 14.4609 199.153 12.8438 201.708 12.8438C204.052 12.8438 205.692 14.4375 206.231 17.2266H206.911C207.45 14.4609 209.255 12.8438 211.716 12.8438C214.903 12.8438 216.638 15.0703 216.638 19.1719Z" fill="#0500FF"/>
<path d="M176.311 39.7969C169.022 39.7969 164.428 35.3672 164.428 28.3125V24.3281C164.428 17.2734 169.022 12.8438 176.311 12.8438C183.6 12.8438 188.194 17.2734 188.194 24.3281V28.3125C188.194 35.3672 183.6 39.7969 176.311 39.7969ZM176.311 18.0938C172.866 18.0938 170.733 20.5781 170.733 24.5859V28.0547C170.733 32.0391 172.866 34.5469 176.311 34.5469C179.756 34.5469 181.889 32.0391 181.889 28.0547V24.5859C181.889 20.5781 179.756 18.0938 176.311 18.0938Z" fill="#0500FF"/>
<path d="M138.586 20.9297C138.586 15.9141 142.617 12.7734 149.016 12.7734C155.273 12.7734 159.094 15.5859 159.398 20.4375H153.352C153.047 18.7266 151.359 17.6719 148.969 17.6719C146.531 17.6719 144.914 18.7734 144.914 20.4141C144.914 21.8203 145.992 22.6641 148.5 23.1797L152.508 24C157.734 25.0781 160.055 27.3047 160.055 31.2422C160.055 36.4688 155.789 39.7734 149.062 39.7734C142.453 39.7734 138.375 36.9375 138.023 32.0859H144.352C144.75 33.8672 146.484 34.8516 149.156 34.8516C151.781 34.8516 153.469 33.75 153.469 32.0625C153.469 30.6094 152.484 29.9062 149.766 29.3203L145.898 28.5C141.047 27.4453 138.586 24.9141 138.586 20.9297Z" fill="#0500FF"/>
<path d="M100.097 31.9688H106.144C105.604 36.5391 101.034 39.7969 95.0342 39.7969C87.5107 39.7969 83.1982 35.5781 83.1982 28.2422V24.0938C83.1982 17.3203 87.8857 12.8438 94.917 12.8438C101.761 12.8438 106.144 17.3438 106.144 24.2812V27.8438H89.4795V29.25C89.4795 32.625 91.6592 34.8281 95.0107 34.8281C97.5889 34.8281 99.6279 33.6562 100.097 31.9688ZM94.7998 17.8125C91.4717 17.8125 89.4795 20.0391 89.4795 23.7422H99.9561C99.9561 20.0391 98.0342 17.8125 94.7998 17.8125Z" fill="#0500FF"/>
<path d="M63.8955 23.7656L72.8955 13.3828H80.2314L70.6689 24.1406L80.8877 39.2344H73.458L65.958 28.1953L63.4971 30.6562V39.2344H57.0986V3.53906H63.4971V23.7656H63.8955Z" fill="#0500FF"/>
<path d="M36.4595 39.6562C31.5845 39.6562 28.3032 36.5156 28.3032 31.8516C28.3032 27.1875 31.7017 24.4453 38.0767 24L44.1235 23.625V21.5625C44.1235 19.3125 42.5767 18 39.9282 18C37.7017 18 36.0376 18.9844 35.4985 20.6016H29.2642C29.7329 15.9141 33.9751 12.8906 40.1157 12.8906C46.7485 12.8906 50.4751 16.0547 50.4751 21.7031V39.2344H44.3813V35.7891H43.8188C42.5532 38.2266 39.8345 39.6562 36.4595 39.6562ZM38.6626 34.5234C41.8501 34.5234 44.1235 32.5078 44.1235 29.625V27.75L39.1548 28.0547C36.1548 28.2422 34.6313 29.3906 34.6313 31.3828C34.6313 33.3047 36.1782 34.5234 38.6626 34.5234Z" fill="#0500FF"/>
<path d="M5.60156 28.0781V39.2344H0V5.41406H6.9375L12.4922 24.7734H12.8906L18.3984 5.41406H25.3594V39.2344H19.7578V28.0781L20.6016 14.5781H20.1094L14.9297 31.2891H10.4297L5.25 14.5781H4.75781L5.60156 28.0781Z" fill="#0500FF"/>
</svg>
